# File created by Blade
# Date/Time:  Wed Jan 21 17:47:32 2015
# Frame Rate: 120.000 fps
#------------------------------------------------------
:FULLY-SPECIFIED
:DEGREES
771
root 14.948217 31.556214 -19.227887 -139.498199 69.520110 -195.280158
Spine 58.171185 -27.826234 -20.491898
Head -25.006946 -16.481705 40.719054
LeftShoulder 39.756754 -48.572930 6.705258
LeftArm 33.343854 13.944345 -18.646046
LeftForeArm 12.438979 -0.000000 4.976938
LeftHand 5.318904 0.000000 11.809057
LeftHandThumb1 -26.253704 0.000000 33.147579
RightShoulder -12.985147 -8.018697 0.245736
RightArm -26.847881 35.060779 26.791252
RightForeArm -14.346787 -0.000000 9.945578
RightHand -6.529292 -0.000000 -15.989283
RightHandThumb1 -24.326973 -0.000000 -32.862282
LeftUpLeg -28.975690 18.478141 -14.904594
LeftLeg -1.893276 -0.000000 0.000000
LeftFoot -39.839027 20.036955 -21.764433
LeftToeBase 25.984582 -0.000000 -0.000000
RightUpLeg -82.998177 -6.663663 8.509221
RightLeg -6.324899 -0.000000 0.000000
RightFoot 15.305401 -23.968696 5.161983
RightToeBase 28.139535 -0.000000 -0.000000
772
root 14.954101 31.544751 -19.251643 -138.979862 69.899115 -194.979513
Spine 58.536071 -27.821795 -20.832343
Head -25.273071 -16.667969 41.075489
LeftShoulder 39.922164 -48.367636 6.910629
LeftArm 34.407066 13.881727 -18.312038
LeftForeArm 13.460725 -0.000000 4.617610
LeftHand 5.284228 -0.000000 10.474947
LeftHandThumb1 -26.253704 0.000000 33.147579
RightShoulder -13.127109 -8.170400 0.413363
RightArm -27.429635 35.208516 26.771615
RightForeArm -13.856886 -0.000000 9.825297
RightHand -6.786398 0.000000 -15.733720
RightHandThumb1 -24.326973 -0.000000 -32.862282
LeftUpLeg -29.226991 18.547416 -15.045010
LeftLeg -1.793820 -0.000000 0.000000
LeftFoot -40.068699 20.207307 -21.763740
LeftToeBase 25.674171 -0.000000 -0.000000
RightUpLeg -83.209006 -6.345973 8.610897
RightLeg -6.352251 -0.000000 0.000000
RightFoot 15.271914 -23.636281 5.242088
RightToeBase 28.759620 -0.000000 -0.000000
773
root 14.965388 31.533607 -19.277150 -138.491228 70.283192 -194.656341
Spine 58.968582 -27.782424 -21.241491
Head -25.465623 -16.925627 41.483604
LeftShoulder 40.533470 -48.579487 6.607049
LeftArm 35.082017 14.373101 -17.983058
LeftForeArm 14.622024 0.000000 4.304589
LeftHand 5.405106 -0.000000 10.103069
LeftHandThumb1 -26.253704 0.000000 33.147579
RightShoulder -13.192389 -8.316804 0.590816
RightArm -28.039773 35.340610 26.740477
RightForeArm -13.259747 0.000000 9.657074
RightHand -7.052640 -0.000000 -15.584299
RightHandThumb1 -24.326973 -0.000000 -32.862282
LeftUpLeg -29.424321 18.702778 -15.204351
LeftLeg -1.702868 -0.000000 0.000000
LeftFoot -40.260057 20.240779 -21.818027
LeftToeBase 25.404893 -0.000000 -0.000000
RightUpLeg -83.352228 -6.036237 8.698356
RightLeg -6.390456 -0.000000 0.000000
RightFoot 15.351641 -23.414769 5.634886
RightToeBase 28.737396 -0.000000 -0.000000
774
root 14.976893 31.523318 -19.301682 -137.828690 70.701288 -194.199827
Spine 59.350184 -27.716203 -21.595961
Head -25.805034 -17.104529 41.952948
LeftShoulder 40.994361 -48.865673 6.322379
LeftArm 35.853770 15.069336 -17.563405
LeftForeArm 15.524248 -0.000000 4.070921
LeftHand 5.399732 -0.000000 8.705345
LeftHandThumb1 -26.253704 0.000000 33.147579
RightShoulder -13.309753 -8.392130 0.808548
RightArm -28.596324 35.351593 26.672112
RightForeArm -12.540246 -0.000000 9.462598
RightHand -7.375782 -0.000000 -15.234296
RightHandThumb1 -24.326973 -0.000000 -32.862282
LeftUpLeg -29.700736 18.959625 -15.410369
LeftLeg -1.604081 -0.000000 0.000000
LeftFoot -40.420207 20.205424 -21.868925
LeftToeBase 25.290160 -0.000000 -0.000000
RightUpLeg -83.538298 -5.663302 8.670830
RightLeg -6.409227 -0.000000 0.000000
RightFoot 15.261858 -23.286046 6.219276
RightToeBase 28.426647 -0.000000 -0.000000
775
root 14.987037 31.512961 -19.325716 -137.159512 71.098871 -193.760329
Spine 59.683399 -27.699315 -21.977269
Head -25.981494 -17.310404 42.382057
LeftShoulder 41.440130 -49.013223 6.074815
LeftArm 36.510561 15.684844 -17.100939
LeftForeArm 16.515697 -0.000000 3.817884
LeftHand 5.256874 -0.000000 7.590336
LeftHandThumb1 -26.253704 0.000000 33.147579
RightShoulder -13.373713 -8.708575 1.004083
RightArm -29.020174 35.605468 26.698568
RightForeArm -11.864960 -0.000000 9.161947
RightHand -7.649241 0.000000 -14.868946
RightHandThumb1 -24.326973 -0.000000 -32.862282
LeftUpLeg -30.005033 19.207400 -15.625894
LeftLeg -1.496439 -0.000000 0.000000
LeftFoot -40.572870 20.144199 -21.917653
LeftToeBase 25.297747 -0.000000 -0.000000
RightUpLeg -83.761791 -5.307690 8.585437
RightLeg -6.353521 -0.000000 0.000000
RightFoot 15.203578 -23.057847 6.316971
RightToeBase 28.398136 -0.000000 -0.000000
776
root 15.002997 31.504219 -19.351335 -136.285464 71.444361 -193.083037
Spine 60.109949 -27.732034 -22.308592
Head -26.211364 -17.564957 42.797635
LeftShoulder 41.644835 -49.174046 5.914884
LeftArm 37.216431 16.407242 -16.452463
LeftForeArm 17.503520 -0.000000 3.615931
LeftHand 4.851117 0.000000 6.768390
LeftHandThumb1 -26.253704 0.000000 33.147579
RightShoulder -13.340039 -8.683921 1.106350
RightArm -29.716188 35.621940 26.540928
RightForeArm -11.262303 -0.000000 9.003037
RightHand -8.135212 -0.000000 -14.467967
RightHandThumb1 -24.326973 -0.000000 -32.862282
LeftUpLeg -30.260091 19.439407 -15.725140
LeftLeg -1.432839 -0.000000 0.000000
LeftFoot -40.656581 20.061954 -22.089657
LeftToeBase 25.152409 -0.000000 -0.000000
RightUpLeg -83.941863 -4.948813 8.621089
RightLeg -6.320560 -0.000000 0.000000
RightFoot 15.217211 -22.846073 6.545887
RightToeBase 28.293859 -0.000000 -0.000000
